<?xml version="1.0" encoding="utf-8"?>
<svg version="1.1" id="Object" xmlns="http://www.w3.org/2000/svg" xmlns:xlink="http://www.w3.org/1999/xlink" x="0px" y="0px"
	 viewBox="0 0 1122 1122" style="enable-background:new 0 0 1122 1122;" xml:space="preserve">
<style type="text/css">
	.st0{fill:#616E7D;}
	.st1{fill:#AAD4C8;}
</style>
<g>
	<path class="st0" d="M572.29,1010.1c9.12,4.6,20.15,3.68,28.38-2.4l307.69-227.02c6.94-5.12,11.03-13.19,11.03-21.82
		c0.02-8.64-4.06-16.72-10.98-21.87L600.73,508.52c-8.21-6.09-19.26-7.05-28.42-2.45c-9.13,4.6-14.95,14.05-14.95,24.27v91.35
		h-371.2c-7.17,0-14.15,2.9-19.22,7.95c-5.05,5.07-7.94,12.07-7.94,19.22v218.46c0,7.15,2.88,14.15,7.94,19.21
		c5.08,5.05,12.05,7.95,19.22,7.95h371.2v91.35C557.36,996.06,563.14,1005.48,572.29,1010.1z"/>
	<path class="st1" d="M505.42,94.76c-8.62-4.36-19.04-3.48-26.83,2.26L170.91,324.06c-6.58,4.84-10.44,12.48-10.44,20.65
		c-0.04,8.15,3.81,15.81,10.37,20.67l307.69,228.45c7.77,5.77,18.24,6.68,26.86,2.32c8.65-4.34,14.15-13.28,14.15-22.95v-92.82
		h403.19c6.76,0,13.39-2.74,18.18-7.52c4.8-4.79,7.53-11.42,7.53-18.18V236.22c0-6.77-2.73-13.39-7.53-18.18
		c-4.78-4.78-11.42-7.52-18.18-7.52H519.54v-92.81C519.54,108.04,514.07,99.13,505.42,94.76z"/>
</g>
</svg>
